<svg xmlns="http://www.w3.org/2000/svg" width="1600" height="1600" viewBox="0 0 1536 1536"><path fill="#69a" d="M1024 768q0-106-75-181t-181-75-181 75-75 181 75 181 181 75 181-75 75-181m512-109v222q0 12-8 23t-20 13l-185 28q-19 54-39 91 35 50 107 138 10 12 10 25t-9 23q-27 37-99 108t-94 71q-12 0-26-9l-138-108q-44 23-91 38-16 136-29 186-7 28-36 28h-222q-14 0-24.5-8.5t-11.5-21.5l-28-184q-49-16-90-37l-141 107q-10 9-25 9-14 0-25-11-126-114-165-168-7-10-7-23 0-12 8-23 15-21 51-66.5t54-70.5q-27-50-41-99l-183-27q-13-2-21-12.5t-8-23.5v-222q0-12 8-23t19-13l186-28q14-46 39-92-40-57-107-138-10-12-10-24 0-10 9-23 26-36 98.5-107.5t94.5-71.5q13 0 26 10l138 107q44-23 91-38 16-136 29-186 7-28 36-28h222q14 0 24.5 8.5t11.5 21.5l28 184q49 16 90 37l142-107q9-9 24-9 13 0 25 10 129 119 165 170 7 8 7 22 0 12-8 23-15 21-51 66.5t-54 70.5q26 50 41 98l183 28q13 2 21 12.5t8 23.5" stroke="#3b5060" stroke-opacity="1" stroke-width="20" transform="matrix(.99 0 0 .99 7.92 7.92)"/><path d="M7.354396 4.142622q-.374-.649-1.144-1.166-.979-.682-2.189-.682-.957 0-1.7215.352-.7645.352-1.2045 1.1055-.44.7535-.44 1.8425 0 1.089.297 1.9305.297.8415.8305 1.474.5335.6325 1.2485.9845.715.352 1.551.352 1.639 0 2.42-.935.033-.044.033-.1595 0-.1155-.143-.3025-.143-.187-.2695-.187-.1265 0-.1925.099-.506.781-1.8315.781-1.3255 0-2.2165-1.089-.935-1.111-.935-2.8765 0-1.7655 1.265-2.3815.594-.297 1.2375-.297.6435 0 1.2045.1925.561.1925 1.078.5445.517.352.858.803.132.165.275.165.143 0 .143-.143z" transform="rotate(-10) skewX(-10) scale(180 140)" fill="#35426b" stroke="#fff" stroke-width=".1" stroke-linejoin="round"/><path d="M4.25 8.75v10h2v-4h2v4h2v-10h-2v4h-2v-4z" transform="scale(90 60) skewX(-8)" stroke="none" stroke-linejoin="round" stroke-opacity="1" fill-opacity=".4"/><path fill="#664716" d="M3.75 8.25v10h2v-4h2v4h2v-10h-2v4h-2v-4z" transform="scale(90 60) skewX(-8)" stroke="#33230b" stroke-width=".25" stroke-linejoin="round"/><path d="M11.5 8.75v10h2v-4h2a2 2 0 002-2v-2a2 2 0 00-2-2zm2 2h2v2h-2z" transform="scale(90 60) skewX(-8)" stroke-width=".25" stroke-linejoin="round" fill-opacity=".4"/><path fill="#664716" d="M11 8.25v10h2v-4h2a2 2 0 002-2v-2a2 2 0 00-2-2zm2 2h2v2h-2z" transform="scale(90 60) skewX(-8)" stroke="#33230b" stroke-width=".25" stroke-linejoin="round"/></svg>